<?xml version="1.0" encoding="iso-8859-1"?>
<!-- Generator: Adobe Illustrator 19.0.0, SVG Export Plug-In . SVG Version: 6.00 Build 0)  -->
<svg version="1.1" id="Capa_1" xmlns="http://www.w3.org/2000/svg" xmlns:xlink="http://www.w3.org/1999/xlink" x="0px" y="0px"
	 viewBox="0 0 480.003 480.003" style="enable-background:new 0 0 480.003 480.003;" xml:space="preserve">
<g>
	<g>
		<path d="M306.299,296.956c-3.219-2.366-6.681-4.38-10.329-6.009v0c0-30.928-25.072-56-56-56c-30.928,0-56,25.072-56,56
			c-28.24,12.612-40.908,45.729-28.297,73.968c12.612,28.24,45.729,40.909,73.968,28.297c3.647-1.629,7.11-3.643,10.328-6.009
			c24.921,18.316,59.972,12.962,78.288-11.959C336.574,350.323,331.22,315.272,306.299,296.956z M311.013,354.272
			c-5.323,16.518-20.689,27.719-38.043,27.731h0c-10.24,0.006-20.089-3.937-27.496-11.008c-3.086-2.926-7.922-2.926-11.008,0
			c-15.988,15.246-41.307,14.644-56.553-1.343s-14.644-41.307,1.343-56.553c4.395-4.191,9.686-7.326,15.473-9.168
			c3.624-1.164,5.926-4.721,5.504-8.504c-2.534-21.946,13.202-41.79,35.148-44.324c21.946-2.534,41.79,13.202,44.324,35.148
			c0.352,3.049,0.352,6.128,0,9.176c-0.422,3.783,1.88,7.34,5.504,8.504C306.237,310.707,317.789,333.245,311.013,354.272z"/>
	</g>
</g>
<g>
	<g>
		<path d="M191.97,136.003c-21.304,0-38,21.96-38,50c0,28.04,16.696,50,38,50s38-21.96,38-50
			C229.97,157.963,213.274,136.003,191.97,136.003z M191.97,220.003c-11.92,0-22-15.568-22-34s10.08-34,22-34s22,15.568,22,34
			S203.89,220.003,191.97,220.003z"/>
	</g>
</g>
<g>
	<g>
		<path d="M125.97,214.003c-21.304,0-38,22-38,50s16.696,50,38,50s38-21.96,38-50C163.97,235.963,147.274,214.003,125.97,214.003z
			 M125.97,298.003c-11.92,0-22-15.6-22-34c0-18.4,10.08-34,22-34s22,15.6,22,34C147.97,282.403,137.89,298.003,125.97,298.003z"/>
	</g>
</g>
<g>
	<g>
		<path d="M287.97,136.003c-21.304,0-38,21.96-38,50c0,28.04,16.696,50,38,50c21.304,0,38-21.96,38-50
			C325.97,157.963,309.274,136.003,287.97,136.003z M287.97,220.003c-11.92,0-22-15.568-22-34s10.08-34,22-34
			c11.92,0,22,15.568,22,34S299.89,220.003,287.97,220.003z"/>
	</g>
</g>
<g>
	<g>
		<path d="M353.97,214.003c-21.304,0-38,22-38,50s16.696,50,38,50c21.304,0,38-21.96,38-50
			C391.97,235.963,375.274,214.003,353.97,214.003z M353.97,298.003c-11.92,0-22-15.6-22-34c0-18.4,10.08-34,22-34
			c11.92,0,22,15.6,22,34C375.97,282.403,365.89,298.003,353.97,298.003z"/>
	</g>
</g>
<g>
	<g>
		<path d="M466.786,124.003L243.834,0.995c-2.405-1.327-5.323-1.327-7.728,0L13.162,124.003
			c-12.321,6.836-16.767,22.365-9.931,34.686c6.811,12.276,22.26,16.742,34.571,9.994l2.168-1.192v264.512
			c-13.255,0-24,10.745-24,24s10.745,24,24,24h400c13.255,0,24-10.745,24-24s-10.745-24-24-24V167.491l2.168,1.192
			c12.338,6.806,27.858,2.322,34.664-10.016C483.608,146.329,479.124,130.809,466.786,124.003z M447.97,456.003c0,4.418-3.582,8-8,8
			h-400c-4.418,0-8-3.582-8-8s3.582-8,8-8h400C444.388,448.003,447.97,451.585,447.97,456.003z M55.97,432.003V158.659l184-101.512
			l184,101.512v273.344H55.97z M459.298,154.531c-2.889,1.745-6.494,1.797-9.432,0.136L243.834,40.995
			c-2.405-1.327-5.323-1.327-7.728,0L30.074,154.667c-4.593,2.541-10.376,0.877-12.917-3.717c-0.781-1.411-1.189-2.998-1.187-4.611
			c-0.001-3.463,1.884-6.653,4.92-8.32L239.97,17.147l219.088,120.872c3.031,1.671,4.913,4.859,4.912,8.32
			C464.008,149.713,462.221,152.845,459.298,154.531z"/>
	</g>
</g>
<g>
</g>
<g>
</g>
<g>
</g>
<g>
</g>
<g>
</g>
<g>
</g>
<g>
</g>
<g>
</g>
<g>
</g>
<g>
</g>
<g>
</g>
<g>
</g>
<g>
</g>
<g>
</g>
<g>
</g>
</svg>
