<?xml version="1.0" encoding="iso-8859-1"?>
<!-- Generator: Adobe Illustrator 16.0.0, SVG Export Plug-In . SVG Version: 6.00 Build 0)  -->
<!DOCTYPE svg PUBLIC "-//W3C//DTD SVG 1.1//EN" "http://www.w3.org/Graphics/SVG/1.1/DTD/svg11.dtd">
<svg version="1.1" id="Capa_1" xmlns="http://www.w3.org/2000/svg" xmlns:xlink="http://www.w3.org/1999/xlink" x="0px" y="0px"
	 width="34.865px" height="34.865px" viewBox="0 0 34.865 34.865" style="enable-background:new 0 0 34.865 34.865;"
	 xml:space="preserve">
<g>
	<path d="M29.483,2.048h-2.537c0.115-0.292,0.144-0.618,0.058-0.938C26.827,0.455,26.233,0,25.557,0H9.307
		C8.627,0,8.035,0.455,7.859,1.11C7.772,1.429,7.8,1.756,7.916,2.048H5.38c-0.828,0-1.5,0.671-1.5,1.5v29.817
		c0,0.829,0.672,1.5,1.5,1.5h24.105c0.828,0,1.5-0.671,1.5-1.5V3.548C30.983,2.72,30.312,2.048,29.483,2.048z M9.928,2.409
		l6.473,5.078l-3.06,3.377L9.928,2.409z M18.458,7.487l6.473-5.077l-3.412,8.454L18.458,7.487z M6.875,31.866V5.049h3.039
		l2.798,6.929c0.063,0.16,0.206,0.275,0.376,0.305c0.029,0.005,0.059,0.008,0.088,0.008c0.141,0,0.273-0.059,0.37-0.164l2.37-2.616
		l-2.062,22.355H6.875z M27.983,31.866h-7.229L18.663,9.202l2.648,2.924c0.097,0.105,0.229,0.164,0.371,0.164
		c0.028,0,0.06-0.002,0.088-0.008c0.168-0.03,0.312-0.146,0.375-0.305l2.8-6.929h3.036v26.818H27.983z"/>
</g>
<g>
</g>
<g>
</g>
<g>
</g>
<g>
</g>
<g>
</g>
<g>
</g>
<g>
</g>
<g>
</g>
<g>
</g>
<g>
</g>
<g>
</g>
<g>
</g>
<g>
</g>
<g>
</g>
<g>
</g>
</svg>
