<?xml version="1.0"?>
<svg xmlns="http://www.w3.org/2000/svg" width="512" height="512" viewBox="0 0 512 512"><g><path d="M88,288a24,24,0,1,0,24,24A24.027,24.027,0,0,0,88,288Zm0,32a8,8,0,1,1,8-8A8.009,8.009,0,0,1,88,320Z"/><path d="M416,288a24,24,0,1,0,24,24A24.027,24.027,0,0,0,416,288Zm0,32a8,8,0,1,1,8-8A8.009,8.009,0,0,1,416,320Z"/><path d="M499.15,248.65l-224-96A7.932,7.932,0,0,0,272,152H128a8.081,8.081,0,0,0-3.58.84l-112,56A8.011,8.011,0,0,0,8,216v80a8.008,8.008,0,0,0,2.34,5.66l16,16A8.008,8.008,0,0,0,32,320h8.68a47.993,47.993,0,0,0,94.65-.03c.22.01.44.03.67.03H368c.23,0,.45-.02.67-.03a48,48,0,0,0,94.66,0c.22.01.44.03.67.03h16a8.008,8.008,0,0,0,5.66-2.34l16-16A8.008,8.008,0,0,0,504,296V256A8,8,0,0,0,499.15,248.65ZM401.02,224H284.28l-21.33-32h63.41Zm-135.97,0H205.77L195.1,192h48.62ZM88,344a32,32,0,1,1,32-32A32.036,32.036,0,0,1,88,344Zm328,0a32,32,0,1,1,32-32A32.036,32.036,0,0,1,416,344Zm72-51.31L476.69,304H464c-.23,0-.45.02-.67.03a48,48,0,0,0-94.66,0c-.22-.01-.44-.03-.67-.03H136c-.23,0-.45.02-.67.03A47.993,47.993,0,0,0,40.68,304H35.31L24,292.69V220.94L129.89,168H270.36l18.66,8H184a8,8,0,0,0-7.59,10.53l16,48A8,8,0,0,0,200,240H438.36L488,261.28Z"/><path d="M320,248H296a8,8,0,0,0,0,16h24a8,8,0,0,0,0-16Z"/><path d="M216,280H152a8,8,0,0,0,0,16h64a8,8,0,0,0,0-16Z"/><path d="M176,272a8,8,0,0,0,0-16H144a8,8,0,0,0,0,16Z"/></g></svg>
