<?xml version="1.0"?>
<svg xmlns="http://www.w3.org/2000/svg" viewBox="0 0 64 64" width="512" height="512"><g id="outline"><path d="M48,50H34a3,3,0,0,0,0,6H48a3,3,0,0,0,0-6Zm0,4H34a1,1,0,0,1,0-2H48a1,1,0,0,1,0,2Z"/><path d="M57.954,46.89A1,1,0,0,0,56.96,46H55V43a1,1,0,0,0-1-1H53V41a3.006,3.006,0,0,0-2-2.829V34.75A2.752,2.752,0,0,0,48.25,32h-.5a.751.751,0,0,1-.75-.75v-.625A3.629,3.629,0,0,0,43.375,27H42a1,1,0,0,0-1,1v3.5A2.5,2.5,0,0,1,38.5,34H34a3,3,0,0,0-3,3v1.171A3.006,3.006,0,0,0,29,41v1H28a1,1,0,0,0-1,1v3H25.96a1,1,0,0,0-.994.89L24,55.59V25a1,1,0,0,0-1-1H22V18a.925.925,0,0,0-.02-.2l-1-5A1,1,0,0,0,20,12H19V8h3a1,1,0,0,0,1-1V3a1,1,0,0,0-1-1H15a1.012,1.012,0,0,0-.372.071l-5,2A1,1,0,0,0,9,5v7H8a1,1,0,0,0-.98.8l-1,5A.925.925,0,0,0,6,18v6H5a1,1,0,0,0-1,1V59a3,3,0,0,0,3,3H21a3,3,0,0,0,3-3V57.444a5.744,5.744,0,0,0,1.32,2.806A4.868,4.868,0,0,0,28.96,62h25a4.868,4.868,0,0,0,3.64-1.75,5.6,5.6,0,0,0,1.354-4.36ZM11,5.677,15.192,4H21V6H18a1,1,0,0,0-1,1v5H11ZM8,18.1,8.82,14H19.18L20,18.1V24H8ZM22,59a1,1,0,0,1-1,1H7a1,1,0,0,1-1-1V30H22Zm0-31H6V26H22Zm9,13a1,1,0,0,1,1-1h5V38H33V37a1,1,0,0,1,1-1h4.5A4.505,4.505,0,0,0,43,31.5V29h.375A1.627,1.627,0,0,1,45,30.625v.625A2.752,2.752,0,0,0,47.75,34h.5a.751.751,0,0,1,.75.75V38H42v2h8a1,1,0,0,1,1,1v1H31Zm-2,3H53v2H29ZM56.089,58.939A2.837,2.837,0,0,1,53.96,60h-25a2.835,2.835,0,0,1-2.129-1.06,3.6,3.6,0,0,1-.877-2.83l.9-8.11h29.21l.905,8.142A3.578,3.578,0,0,1,56.089,58.939Z"/><path d="M54.94,51.8l-1.961.392L53.74,56H51v2h2.74A2,2,0,0,0,55.7,55.607Z"/><path d="M9,56h4a1,1,0,0,0,1-1V33a1,1,0,0,0-1-1H9a1,1,0,0,0-1,1V55A1,1,0,0,0,9,56Zm1-22h2V54H10Z"/><rect x="18" y="32" width="2" height="2"/><rect x="18" y="36" width="2" height="2"/><path d="M10,17v4h2V18h2V16H11A1,1,0,0,0,10,17Z"/></g></svg>
