<svg height="512" viewBox="0 0 64 64" width="512" xmlns="http://www.w3.org/2000/svg"><g id="outline"><path d="m30 62h4a1 1 0 0 0 1-1v-5h1a3 3 0 0 0 3-3v-3h1a1 1 0 0 0 1-1v-4a1 1 0 0 0 -1-1h-1v-7a1 1 0 0 0 -1-1h-4a1 1 0 0 0 -1 1v7h-2v-7a1 1 0 0 0 -1-1h-4a1 1 0 0 0 -1 1v7h-1a1 1 0 0 0 -1 1v4a1 1 0 0 0 1 1h1v3a3 3 0 0 0 3 3h1v5a1 1 0 0 0 1 1zm3-2h-2v-4h2zm2-22h2v6h-2zm-8 0h2v6h-2zm-2 10v-2h14v2zm3 6a1 1 0 0 1 -1-1v-3h10v3a1 1 0 0 1 -1 1z"/><path d="m48 31v-26a3 3 0 0 0 -3-3h-26a3 3 0 0 0 -3 3v26a3 3 0 0 0 3 3h26a3 3 0 0 0 3-3zm-30 0v-26a1 1 0 0 1 1-1h26a1 1 0 0 1 1 1v26a1 1 0 0 1 -1 1h-26a1 1 0 0 1 -1-1z"/><path d="m20 6h2v2h-2z"/><path d="m42 6h2v2h-2z"/><path d="m42 28h2v2h-2z"/><path d="m20 28h2v2h-2z"/><path d="m28 15a3 3 0 1 0 3 3 3 3 0 0 0 -3-3zm0 4a1 1 0 1 1 1-1 1 1 0 0 1 -1 1z"/><path d="m36 15a3 3 0 1 0 3 3 3 3 0 0 0 -3-3zm0 4a1 1 0 1 1 1-1 1 1 0 0 1 -1 1z"/><path d="m32 6a12 12 0 1 0 12 12 12.013 12.013 0 0 0 -12-12zm-1 2.051a9.829 9.829 0 0 1 2 0v2.949h-2zm2 19.9a9.829 9.829 0 0 1 -2 0v-2.951h2zm2-.41v-3.541a1 1 0 0 0 -1-1h-4a1 1 0 0 0 -1 1v3.539a10 10 0 0 1 0-19.078v3.539a1 1 0 0 0 1 1h4a1 1 0 0 0 1-1v-3.539a10 10 0 0 1 0 19.078z"/></g></svg>