<?xml version="1.0"?>
<svg xmlns="http://www.w3.org/2000/svg" width="512" height="512" viewBox="0 0 512 512"><g><path d="M496,8H240a8,8,0,0,0-7.06,11.76l256,480A8,8,0,0,0,496,504a8.113,8.113,0,0,0,1.94-.24A8,8,0,0,0,504,496V16A8,8,0,0,0,496,8Zm-8,32h-8a8,8,0,0,0,0,16h8V72h-8a8,8,0,0,0,0,16h8v16h-8a8,8,0,0,0,0,16h8v16h-8a8,8,0,0,0,0,16h8v16h-8a8,8,0,0,0,0,16h8v16h-8a8,8,0,0,0,0,16h8v16h-8a8,8,0,0,0,0,16h8v16h-8a8,8,0,0,0,0,16h8v16h-8a8,8,0,0,0,0,16h8v16h-8a8,8,0,0,0,0,16h8v16h-8a8,8,0,0,0,0,16h8v16h-8a8,8,0,0,0,0,16h8v56L253.33,24H488Z"/><path d="M312.941,67.765l128,240A8,8,0,0,0,456,304V64a8,8,0,0,0-8-8H320a8,8,0,0,0-7.059,11.765ZM440,72V272L333.333,72Z"/><path d="M88,72c0-24.56-30.68-57.78-34.18-61.49a8,8,0,0,0-11.64,0C38.68,14.22,8,47.44,8,72c0,15.75,6.35,29.75,16.14,38.5A8.288,8.288,0,0,0,24,112V480a24,24,0,0,0,48,0V112a8.288,8.288,0,0,0-.14-1.5C81.65,101.75,88,87.75,88,72ZM56,480a8,8,0,0,1-16,0V192H56Zm0-304H40V120H56Zm-8-72c-13.23,0-24-14.36-24-32,0-11.59,13.01-30.86,24-43.95C58.99,41.13,72,60.38,72,72,72,89.64,61.23,104,48,104Z"/><path d="M364,344H324a28.031,28.031,0,0,0-28,28V496a8,8,0,0,0,8,8h80a8,8,0,0,0,8-8V372A28.031,28.031,0,0,0,364,344Zm12,144H312v-8h64Zm0-24H312V400h64Zm0-80H312V372a12.01,12.01,0,0,1,12-12h40a12.01,12.01,0,0,1,12,12Z"/><path d="M272,136H192a8,8,0,0,0-8,8V496a8,8,0,0,0,8,8h80a8,8,0,0,0,8-8V144A8,8,0,0,0,272,136Zm-8,32H248a8,8,0,0,0,0,16h16v16H248a8,8,0,0,0,0,16h16v16H248a8,8,0,0,0,0,16h16v16H248a8,8,0,0,0,0,16h16v16H248a8,8,0,0,0,0,16h16v16H248a8,8,0,0,0,0,16h16v16H248a8,8,0,0,0,0,16h16v16H248a8,8,0,0,0,0,16h16v16H248a8,8,0,0,0,0,16h16v16H248a8,8,0,0,0,0,16h16v16H200V152h64Z"/><path d="M140,8h-8a28.031,28.031,0,0,0-28,28V440c0,.05.01.1.01.15,0,.11.01.21.01.32.02.21.03.41.06.62.02.09.03.19.05.29.04.23.09.46.15.68.02.07.03.14.05.2a7.276,7.276,0,0,0,.32.89l24,56a7.994,7.994,0,0,0,14.7,0l24-56a7.276,7.276,0,0,0,.32-.89c.02-.06.03-.13.05-.2.06-.22.11-.45.15-.68.02-.1.03-.2.05-.3.03-.2.04-.4.06-.61,0-.11.01-.21.01-.32,0-.05.01-.1.01-.15V36A28.031,28.031,0,0,0,140,8Zm-4,467.69L124.13,448h23.74ZM152,432h-8V280a8,8,0,0,0-16,0V432h-8V96h32Zm0-352H120V72h32Zm0-24H120V36a12.01,12.01,0,0,1,12-12h8a12.01,12.01,0,0,1,12,12Z"/><path d="M136,264a8,8,0,0,0,8-8v-8a8,8,0,0,0-16,0v8A8,8,0,0,0,136,264Z"/></g></svg>
