<?xml version="1.0" encoding="iso-8859-1"?>
<!-- Generator: Adobe Illustrator 19.0.0, SVG Export Plug-In . SVG Version: 6.00 Build 0)  -->
<svg version="1.1" id="Capa_1" xmlns="http://www.w3.org/2000/svg" xmlns:xlink="http://www.w3.org/1999/xlink" x="0px" y="0px"
	 viewBox="0 0 512.019 512.019" style="enable-background:new 0 0 512.019 512.019;" xml:space="preserve">
<g>
	<g>
		<path d="M486.328,69.385c0.099-0.367,0.173-0.741,0.222-1.118V25.6c0-14.138-11.462-25.6-25.6-25.6H51.35
			c-14.138,0-25.6,11.461-25.6,25.6v42.667c0.05,0.383,0.127,0.762,0.23,1.135c-0.002,0.386,0.027,0.771,0.085,1.152l41.907,150.878
			l-41.66,108.305c-0.139,0.525-0.227,1.062-0.265,1.604c-0.148,0.475-0.248,0.964-0.299,1.459v155.785
			c-1.017,6.702,0.759,13.529,4.915,18.884c3.258,3.112,7.651,4.75,12.151,4.531H460.95c14.138,0,25.6-11.461,25.6-25.6V332.8
			c-0.052-0.503-0.152-1.001-0.299-1.485c-0.038-0.534-0.126-1.062-0.265-1.579l-41.66-108.297l41.916-150.886
			C486.301,70.167,486.329,69.776,486.328,69.385z M469.483,486.4c0,4.713-3.821,8.533-8.533,8.533H42.962
			c-0.155-2.067-0.203-4.14-0.145-6.212V341.333h426.667V486.4z M427.124,219.571c-0.04,0.326-0.063,0.653-0.068,0.981
			c-0.104,0.563-0.144,1.135-0.12,1.707c0.033,0.577,0.127,1.149,0.282,1.707c0.037,0.321,0.092,0.64,0.162,0.956l38.212,99.345
			H46.708L82.812,230.4h81.869c-12.458,14.753-21.115,32.331-25.216,51.2h-28.382c-4.713,0-8.533,3.82-8.533,8.533
			s3.82,8.533,8.533,8.533h110.933c4.713,0,8.533-3.82,8.533-8.533s-3.821-8.533-8.533-8.533h-29.124
			c10.449-25.752,35.466-42.599,63.258-42.599s52.808,16.847,63.258,42.599h-29.124c-4.713,0-8.533,3.82-8.533,8.533
			s3.821,8.533,8.533,8.533h110.933c4.713,0,8.533-3.82,8.533-8.533s-3.821-8.533-8.533-8.533h-28.382
			c-4.097-18.87-12.755-36.449-25.216-51.2h53.598c4.713,0,8.533-3.82,8.533-8.533s-3.821-8.533-8.533-8.533h-71.313
			c-15.881-12.589-34.753-20.85-54.775-23.979l38.255-38.255c3.331-3.332,3.331-8.734,0-12.066L279.25,104.9
			c-1.6-1.6-3.77-2.5-6.033-2.5h-34.133c-2.263,0-4.433,0.9-6.033,2.5l-34.133,34.133c-3.331,3.332-3.331,8.734,0,12.066
			l38.255,38.255c-20.023,3.129-38.894,11.39-54.775,23.979H83.435L45.505,76.8h421.282L427.124,219.571z M256.15,136.533h-30.601
			l17.067-17.067h27.068l25.6,25.6l-39.134,39.134L225.549,153.6h30.601c4.713,0,8.533-3.821,8.533-8.533
			S260.863,136.533,256.15,136.533z M355.282,281.6h-17.724c-11.175-35.558-44.135-59.75-81.408-59.75s-70.233,24.191-81.408,59.75
			h-17.724c11.672-45.206,52.444-76.792,99.132-76.8C302.844,204.789,343.626,236.384,355.282,281.6z M469.483,59.733H42.817V25.6
			c0-4.713,3.82-8.533,8.533-8.533h409.6c4.713,0,8.533,3.82,8.533,8.533V59.733z"/>
	</g>
</g>
<g>
</g>
<g>
</g>
<g>
</g>
<g>
</g>
<g>
</g>
<g>
</g>
<g>
</g>
<g>
</g>
<g>
</g>
<g>
</g>
<g>
</g>
<g>
</g>
<g>
</g>
<g>
</g>
<g>
</g>
</svg>
