<svg id="Layer_1" enable-background="new 0 0 512 512" height="512" viewBox="0 0 512 512" width="512" xmlns="http://www.w3.org/2000/svg"><g><path d="m382.278 241.066c-45.788-50.726-46.646-56.143-22.952-94.432 8.197-13.247 16.674-26.946 16.674-42.634 0-25.187-26.71-51.772-40-63.44v-24.56c0-8.836-7.163-16-16-16s-16 7.164-16 16v17.705c-21.274 4.578-37.523 17.558-48 28.589-10.477-11.031-26.726-24.011-48-28.589v-17.705c0-8.836-7.163-16-16-16s-16 7.164-16 16v24.56c-13.29 11.668-40 38.254-40 63.44 0 15.688 8.477 29.387 16.674 42.634 23.77 38.412 22.716 43.84-22.952 94.432-41.242 45.685-97.722 108.253-97.722 214.934 0 4.244 1.686 8.313 4.687 11.313 4.573 4.575 49.585 44.687 219.313 44.687s214.74-40.112 219.313-44.687c3.001-3 4.687-7.07 4.687-11.313 0-106.681-56.48-169.249-97.722-214.934zm-184.869-176.724c27.167 3.438 44.717 31.639 44.871 31.89 6.291 10.485 21.276 10.272 27.406.055.186-.303 17.736-28.507 44.903-31.945 14.946 13.072 29.411 30.863 29.411 39.658 0 13.647-22.608 35.419-29.761 63h-116.478c-7.091-27.342-29.761-49.484-29.761-63 0-8.796 14.471-26.592 29.409-39.658zm186.257 405.092c-2.712-77.229-22.087-129.347-41.083-170.438-3.707-8.021-13.22-11.516-21.237-7.81-8.021 3.708-11.518 13.216-7.81 21.237 17.952 38.833 36.268 88.274 38.27 162.139-21.994 2.803-48.356 4.797-79.806 5.307v-167.869c0-8.836-7.163-16-16-16s-16 7.164-16 16v167.87c-31.45-.509-57.812-2.503-79.806-5.307 2.002-73.865 20.319-123.306 38.27-162.139 3.708-8.021.211-17.529-7.81-21.237s-17.529-.211-21.237 7.81c-18.995 41.091-38.37 93.209-41.083 170.438-36.774-7.312-55.961-16.586-64.21-21.541 4.252-138.579 117.131-190.036 133.748-248.894h116.257c16.624 58.885 129.496 110.311 133.748 248.894-8.25 4.955-27.438 14.229-64.211 21.54z"/></g></svg>